<?xml version="1.0" encoding="UTF-8"?>
<svg version="1.1" xmlns="http://www.w3.org/2000/svg" width="1080" height="1080">
<path d="M0 0 C356.4 0 712.8 0 1080 0 C1080 356.4 1080 712.8 1080 1080 C723.6 1080 367.2 1080 0 1080 C0 723.6 0 367.2 0 0 Z " fill="#FEFEFF" transform="translate(0,0)"/>
<path d="M0 0 C58.13571856 -1.13063142 121.77460025 10.68048466 165.2578125 52.32470703 C166.65580078 53.68982422 166.65580078 53.68982422 168.08203125 55.08251953 C169.07402761 56.00340152 170.06753964 56.92265328 171.0625 57.84033203 C202.49324055 87.34923177 219.11681526 134.00076359 221.19296265 176.34503174 C221.32524367 180.87090172 221.32515763 185.39454373 221.2878418 189.921875 C221.26948079 192.21381779 221.26733414 194.50535407 221.26757812 196.79736328 C221.13972427 255.03206371 199.24665116 307.57057006 165.08203125 354.08251953 C164.5710791 354.78425293 164.06012695 355.48598633 163.53369141 356.20898438 C157.43649566 364.56992417 151.14723575 372.50674361 144.08203125 380.08251953 C142.9725242 381.34869309 141.86818596 382.61941802 140.76953125 383.89501953 C131.16786084 394.90018236 121.2592827 405.77499177 110.15625 415.28564453 C107.88045407 417.25714383 105.67280458 419.29386348 103.45703125 421.33251953 C97.81018228 426.42592542 91.85912837 431.0821854 85.84033203 435.72265625 C84.17291467 437.01223063 82.51492352 438.31291795 80.859375 439.61767578 C72.52495029 446.15609975 63.88910856 452.19943319 55.08203125 458.08251953 C54.40124512 458.53771973 53.72045898 458.99291992 53.01904297 459.46191406 C41.97389266 466.8105546 30.65078165 473.59326171 19.08203125 480.08251953 C18.18129883 480.59041016 17.28056641 481.09830078 16.35253906 481.62158203 C-19.49832644 501.74664445 -57.31864997 516.99426362 -96.56835938 529.05200195 C-98.79432053 529.73682572 -101.01704934 530.43224905 -103.23632812 531.13842773 C-110.60740147 533.46801696 -117.98949175 535.3813087 -125.54296875 537.02001953 C-126.70175537 537.27307861 -127.86054199 537.5261377 -129.05444336 537.78686523 C-149.2338 542.13815392 -169.34348381 545.7143954 -189.89111328 547.77392578 C-192.7247083 548.06281626 -195.55331877 548.38125789 -198.3828125 548.70751953 C-209.0995198 549.88467005 -219.7660509 550.28307808 -230.54296875 550.33251953 C-231.78788086 550.34178467 -233.03279297 550.3510498 -234.31542969 550.3605957 C-260.15722882 550.27223879 -260.15722882 550.27223879 -268.66796875 541.70751953 C-276.54905548 531.48441175 -276.53374857 519.31717273 -276.38452148 507.00073242 C-276.35570271 504.41600303 -276.36392703 501.83335515 -276.37695312 499.24853516 C-276.31440127 448.48815466 -246.25973235 398.98593114 -221.23828125 356.36035156 C-219.55181994 353.45083159 -217.94532783 350.50146844 -216.33959961 347.546875 C-211.00020004 337.74035952 -205.20438019 328.21762151 -199.38134766 318.69384766 C-194.86283111 311.30189223 -190.41863031 303.87284406 -186.04296875 296.39501953 C-181.02119125 287.84145093 -175.7642904 279.48002613 -170.30712891 271.19873047 C-168.89975652 269.05477549 -167.50653711 266.90225451 -166.1171875 264.74658203 C-146.86856299 234.90898546 -127.00196277 205.44996473 -106.56152344 176.41699219 C-104.98324503 174.17523668 -103.40746573 171.93174291 -101.83203125 169.68798828 C-95.15735991 160.19410644 -88.38629544 150.77241819 -81.57666016 141.375 C-79.88855591 139.04186799 -78.20531163 136.70530215 -76.5234375 134.36767578 C-70.40796229 125.8716029 -64.2363123 117.42898464 -57.91796875 109.08251953 C-68.20757299 109.56899224 -78.13422824 110.96271632 -88.23046875 112.95751953 C-88.99142853 113.10602356 -89.75238831 113.25452759 -90.53640747 113.40753174 C-144.09390936 123.94897327 -200.2165879 140.29812022 -248.79296875 165.52001953 C-249.95300415 166.12160889 -249.95300415 166.12160889 -251.13647461 166.73535156 C-256.00674387 169.35503735 -260.08757535 171.59133933 -261.91796875 177.08251953 C-252.86440465 177.58667098 -244.32695911 176.20411328 -235.44552612 174.68878174 C-222.78588409 172.53817068 -210.12524698 170.58071828 -197.35546875 169.20751953 C-196.27724854 169.08787842 -195.19902832 168.9682373 -194.08813477 168.8449707 C-186.68250786 168.09017201 -179.35856337 167.9602332 -171.91796875 168.08251953 C-175.08011863 169.79582127 -178.21920348 170.85297044 -181.66796875 171.85986328 C-207.9651077 179.68380545 -233.01132533 189.94102187 -258.06787109 201.06884766 C-297.01837499 218.31892518 -297.01837499 218.31892518 -310.16796875 214.02001953 C-316.35714137 209.6594661 -319.10189151 205.44967001 -320.91796875 198.08251953 C-321.17675781 194.7277832 -321.17675781 194.7277832 -321.18359375 191.25048828 C-321.18794434 189.9664209 -321.19229492 188.68235352 -321.19677734 187.359375 C-321.18867939 185.99624674 -321.17904634 184.63312683 -321.16796875 183.27001953 C-321.16420227 182.57555725 -321.16043579 181.88109497 -321.15655518 181.16558838 C-320.96047925 150.38166833 -314.97581149 119.89528479 -293.5 96.44189453 C-255.4680409 59.84836051 -190.11230861 37.33610649 -139.25341797 24.21362305 C-135.73291881 23.30401001 -132.23193519 22.33720965 -128.73342896 21.34680176 C-118.72522853 18.51787617 -108.66407024 15.97320202 -98.54296875 13.58251953 C-97.72536072 13.38897888 -96.90775269 13.19543823 -96.06536865 12.99603271 C-64.31194318 5.5121925 -32.63501062 0.68735254 0 0 Z " fill="#3A08FF" transform="translate(614.91796875,339.91748046875)"/>
<path d="M0 0 C3.81420518 0.01080581 7.62794676 -0.00002277 11.44213867 -0.01269531 C29.75652823 -0.02430758 47.64148522 0.79065838 65.60424805 4.57324219 C66.66224609 4.79270508 67.72024414 5.01216797 68.81030273 5.23828125 C96.58890829 11.1635926 121.61147827 22.04714067 141.85424805 42.26074219 C142.66635742 43.06125 143.4784668 43.86175781 144.31518555 44.68652344 C165.03362528 66.28885565 169.74662208 94.52165009 169.28681946 123.22607422 C168.72752308 147.566042 161.61882448 170.02189201 149.85424805 191.26074219 C149.51167969 191.88255371 149.16911133 192.50436523 148.81616211 193.14501953 C140.0347538 208.87871709 128.81932417 222.84815364 116.85424805 236.26074219 C116.33797852 236.84017578 115.82170898 237.41960937 115.28979492 238.01660156 C110.10765779 243.80235814 104.91976125 249.49365755 98.9440918 254.47949219 C96.34743357 256.69271864 93.89730606 259.04317994 91.41674805 261.38574219 C84.01194113 268.25491768 75.98231708 274.2803263 67.85424805 280.26074219 C67.1670166 280.76750488 66.47978516 281.27426758 65.77172852 281.79638672 C49.3444855 293.83362444 31.97366968 304.42013391 14.05053711 314.07226562 C11.879699 315.24696993 9.72228907 316.44385591 7.56518555 317.64355469 C-20.58375259 333.10032374 -51.9809372 345.8798019 -83.12866211 353.73242188 C-85.19508504 354.27366361 -87.23719791 354.87118363 -89.2824707 355.48730469 C-102.69416725 359.49097978 -116.36201608 361.9060906 -130.14575195 364.26074219 C-131.09321289 364.42348633 -132.04067383 364.58623047 -133.0168457 364.75390625 C-135.53753184 365.18234886 -138.05957486 365.60031629 -140.58325195 366.01074219 C-141.6350061 366.18404053 -141.6350061 366.18404053 -142.70800781 366.36083984 C-154.5114855 368.20561437 -166.33888417 368.50155103 -178.26196289 368.5559082 C-180.01074318 368.5674176 -181.75948863 368.58785306 -183.50805664 368.61743164 C-197.87087045 368.85897088 -211.69699256 368.2484748 -224.14575195 360.26074219 C-227.7359008 355.65798726 -228.88429493 351.96282115 -228.5637207 346.13183594 C-225.6717424 326.26637747 -212.7356866 307.48213698 -203.03881836 290.24438477 C-199.20764693 283.426133 -195.51846945 276.53368668 -191.83325195 269.63574219 C-191.1843994 268.42256825 -190.53547355 267.20943352 -189.88647461 265.99633789 C-187.39923133 261.34661529 -184.91235211 256.69670027 -182.42895508 252.04492188 C-174.87058737 237.90331475 -167.01841745 223.97028582 -158.86010742 210.16601562 C-157.19875118 207.3505586 -155.54778699 204.52927073 -153.8996582 201.70605469 C-141.54550474 180.59199238 -128.38365433 159.99128527 -115.16625977 139.41064453 C-113.14223 136.25525158 -111.12356638 133.09649245 -109.10668945 129.93652344 C-102.64975756 119.82301144 -96.16014106 109.73420876 -89.58325195 99.69824219 C-59.52894276 58.80807384 -59.52894276 58.80807384 -52.14575195 11.13574219 C-52.33137695 10.28753906 -52.51700195 9.43933594 -52.70825195 8.56542969 C-53.14575195 6.26074219 -53.14575195 6.26074219 -53.14575195 2.26074219 C-35.41027433 0.67059129 -17.80535094 -0.05985379 0 0 Z " fill="#FEFEFF" transform="translate(623.145751953125,442.7392578125)"/>
</svg>
